<svg xmlns="http://www.w3.org/2000/svg" xml:space="preserve" viewBox="0 0 208.43 256">
  <path fill="#424242" d="M201.774 87.28c-1.485 1.151-27.702 15.924-27.702 48.772 0 37.994 33.36 51.436 34.358 51.768-.153.82-5.3 18.409-17.589 36.33-10.957 15.772-22.402 31.517-39.812 31.517-17.41 0-21.89-10.113-41.988-10.113-19.586 0-26.55 10.446-42.474 10.446-15.925 0-27.037-14.593-39.812-32.515C11.956 202.439 0 169.745 0 138.715c0-49.772 32.362-76.168 64.211-76.168 16.924 0 31.03 11.112 41.656 11.112 10.113 0 25.884-11.778 45.137-11.778 7.297 0 33.514.666 50.77 25.398zm-59.91-46.47c7.962-9.447 13.595-22.555 13.595-35.664 0-1.818-.154-3.661-.487-5.146-12.955.486-28.367 8.628-37.661 19.407-7.297 8.295-14.107 21.403-14.107 34.691 0 1.997.333 3.994.486 4.634.82.154 2.151.333 3.482.333 11.624 0 26.243-7.783 34.692-18.255z"/>
</svg>
