<svg xmlns="http://www.w3.org/2000/svg" fill="none" viewBox="0 0 262.475 256">
  <path fill="#000000" fill-rule="evenodd" d="M131.238 0C58.728 0 0 58.729 0 131.238 0 189.31 37.567 238.36 89.734 255.749c6.562 1.149 9.022-2.788 9.022-6.233 0-3.117-.164-13.452-.164-24.443-32.973 6.07-41.504-8.039-44.128-15.42-1.477-3.774-7.875-15.421-13.452-18.538-4.594-2.46-11.155-8.53-.164-8.695 10.335-.164 17.717 9.515 20.177 13.452 11.812 19.85 30.677 14.272 38.223 10.827 1.149-8.53 4.594-14.272 8.367-17.553-29.2-3.28-59.713-14.6-59.713-64.798 0-14.272 5.085-26.084 13.452-35.27-1.313-3.281-5.906-16.733 1.312-34.778 0 0 10.991-3.445 36.09 13.451 10.5-2.952 21.655-4.429 32.81-4.429 11.155 0 22.31 1.477 32.81 4.43 25.098-17.061 36.09-13.452 36.09-13.452 7.218 18.045 2.624 31.497 1.312 34.778 8.366 9.186 13.452 20.833 13.452 35.27 0 50.362-30.677 61.517-59.877 64.798 4.757 4.101 8.858 11.976 8.858 24.28 0 17.552-.164 31.66-.164 36.09 0 3.445 2.46 7.546 9.023 6.233 51.838-17.389 89.405-66.603 89.405-124.511C262.475 58.728 203.746 0 131.238 0Z" clip-rule="evenodd"/>
</svg>
